<?xml version="1.0" encoding="UTF-8"?>
<svg id="Layer_1" data-name="Layer 1" xmlns="http://www.w3.org/2000/svg" xmlns:xlink="http://www.w3.org/1999/xlink" viewBox="0 0 530 530.01">
  <defs>
    <style>
      .cls-1 {
        fill: url(#linear-gradient-2);
      }

      .cls-2 {
        fill: url(#linear-gradient-3);
      }

      .cls-3 {
        fill: url(#linear-gradient);
      }

      .cls-4 {
        fill: #292d32;
      }

      .cls-5 {
        fill: url(#linear-gradient-4);
      }

      .cls-6 {
        fill: #3f80f2;
      }
    </style>
    <linearGradient id="linear-gradient" x1="500.06" y1="150.42" x2="166.43" y2="150.42" gradientUnits="userSpaceOnUse">
      <stop offset="0" stop-color="#e5f1f1"/>
      <stop offset=".08" stop-color="#d6e5e6"/>
      <stop offset=".38" stop-color="#a9c1c4"/>
      <stop offset=".64" stop-color="#89a6ab"/>
      <stop offset=".85" stop-color="#75969c"/>
      <stop offset="1" stop-color="#6e9197"/>
    </linearGradient>
    <linearGradient id="linear-gradient-2" x1="57.18" y1="154" x2="111.99" y2="248.92" xlink:href="#linear-gradient"/>
    <linearGradient id="linear-gradient-3" x1="299.54" y1="184.57" x2="429.44" y2="54.67" gradientUnits="userSpaceOnUse">
      <stop offset="0" stop-color="#292d32"/>
      <stop offset=".46" stop-color="#2b2f33"/>
      <stop offset=".77" stop-color="#343639"/>
      <stop offset="1" stop-color="#414141"/>
    </linearGradient>
    <linearGradient id="linear-gradient-4" x1="102.72" y1="367.72" x2="346.51" y2="123.93" xlink:href="#linear-gradient-3"/>
  </defs>
  <g>
    <g id="BLUE">
      <path id="LB" class="cls-4" d="m391.44,497.92s0,0,0,0l-22.3-22.3h0s-41.11-41.1-41.11-41.1c-19.63,7.32-40.87,11.34-63.02,11.34-99.72,0-180.85-81.13-180.85-180.85h-30c0,116.27,94.59,210.85,210.85,210.85.25,0,.5,0,.75-.01h.73c9.31,0,16.86,5.4,16.86,12.06h0c0,6.66-7.55,12.06-16.86,12.06h1.39c-.96.01-1.91.03-2.87.03-129.58,0-235-105.42-235-235H0c0,146.36,118.64,265,265,265,45.79,0,88.86-11.64,126.44-32.08,0,0,0,0,0,0Z"/>
      <path id="RB" class="cls-4" d="m445.86,265c0,67.45-37.12,126.38-92,157.47l61.05,61.06s0,0,0,0c69.5-47.77,115.09-127.82,115.09-218.53h-84.14Z"/>
    </g>
    <g>
      <path id="RT" class="cls-4" d="m497.18,228.09c1.12,8.78-2.8,16.57-9.09,17.7-6.55,1.18-13.21-5.3-14.92-14.49h-.01c.05.33.1.66.15.99-15.76-100.79-103.17-178.14-208.31-178.14-17.45,0-48.51,5.64-47.45,5.39-8.43,1.36-16.09-2.08-17.58-8.17-1.52-6.22,3.94-12.95,12.33-15.52-15.84,3.61-31.2,8.84-45.87,15.62l18.49,18.49.5.5,22.82,22.82c17.86-5.92,36.94-9.13,56.76-9.13,99.72,0,180.85,81.13,180.85,180.85h54.21c0-12.48-.98-24.81-2.88-36.91Z"/>
      <path id="LT" class="cls-4" d="m54.15,264.99h30c0-32.27,8.5-62.59,23.38-88.85h0s-.01-.01-.01-.01v-51.19c-33.18,37.27-53.37,86.34-53.37,140.05Z"/>
    </g>
    <g id="BLACK">
      <path id="RT-2" data-name="RT" class="cls-4" d="m166.59,51.62c29.95-13.87,63.29-21.63,98.41-21.63,129.58,0,235,105.42,235,235h30c0-146.35-118.65-264.99-265-264.99-43.55,0-84.65,10.51-120.9,29.13l22.49,22.49Z"/>
      <path id="LT-2" data-name="LT" class="cls-4" d="m107.52,90.77v85.37h.01v95.97c2.59,61.08,38.34,112.98,88.22,135.18v-142.92l158.1,158.1c10.19-5.77,19.74-12.52,28.58-20.09.02,0,.04,0,.06,0h0c17.45-14.93,32.01-33.13,42.77-53.63v-.04c.06-.12.13-.23.19-.35h.01l-.2-.2v-85.37c-2.59-61.08-38.34-112.98-88.22-135.18v132.33L141.96,64.87l-21.8-21.8C47.81,90.38,0,172.1,0,265h30c0-69.05,29.95-131.2,77.52-174.23Z"/>
    </g>
  </g>
  <g>
    <g id="BLUE-2" data-name="BLUE">
      <path id="LB-2" data-name="LB" class="cls-6" d="m391.44,497.92s0,0,0,0l-22.3-22.3h0s-41.11-41.1-41.11-41.1c-19.63,7.32-40.87,11.34-63.02,11.34-99.72,0-180.85-81.13-180.85-180.85h-30c0,116.27,94.59,210.85,210.85,210.85.25,0,.5,0,.75-.01h.73c9.31,0,16.86,5.4,16.86,12.06h0c0,6.66-7.55,12.06-16.86,12.06h1.39c-.96.01-1.91.03-2.87.03-129.58,0-235-105.42-235-235H0c0,146.36,118.64,265,265,265,45.79,0,88.86-11.64,126.44-32.08,0,0,0,0,0,0Z"/>
      <path id="RB-2" data-name="RB" class="cls-6" d="m445.86,265c0,67.45-37.12,126.38-92,157.47l61.05,61.06s0,0,0,0c69.5-47.77,115.09-127.82,115.09-218.53h-84.14Z"/>
    </g>
    <g>
      <path id="RT-3" data-name="RT" class="cls-3" d="m497.18,228.09c1.12,8.78-2.8,16.57-9.09,17.7-6.55,1.18-13.21-5.3-14.92-14.49h-.01c.05.33.1.66.15.99-15.76-100.79-103.17-178.14-208.31-178.14-17.45,0-48.51,5.64-47.45,5.39-8.43,1.36-16.09-2.08-17.58-8.17-1.52-6.22,3.94-12.95,12.33-15.52-15.84,3.61-31.2,8.84-45.87,15.62l18.49,18.49.5.5,22.82,22.82c17.86-5.92,36.94-9.13,56.76-9.13,99.72,0,180.85,81.13,180.85,180.85h54.21c0-12.48-.98-24.81-2.88-36.91Z"/>
      <path id="LT-3" data-name="LT" class="cls-1" d="m54.15,264.99h30c0-32.27,8.5-62.59,23.38-88.85h0s-.01-.01-.01-.01v-51.19c-33.18,37.27-53.37,86.34-53.37,140.05Z"/>
    </g>
    <g id="BLACK-2" data-name="BLACK">
      <path id="RT-4" data-name="RT" class="cls-2" d="m166.59,51.62c29.95-13.87,63.29-21.63,98.41-21.63,129.58,0,235,105.42,235,235h30c0-146.35-118.65-264.99-265-264.99-43.55,0-84.65,10.51-120.9,29.13l22.49,22.49Z"/>
      <path id="LT-4" data-name="LT" class="cls-5" d="m107.52,90.77v85.37h.01v95.97c2.59,61.08,38.34,112.98,88.22,135.18v-142.92l158.1,158.1c10.19-5.77,19.74-12.52,28.58-20.09.02,0,.04,0,.06,0h0c17.45-14.93,32.01-33.13,42.77-53.63v-.04c.06-.12.13-.23.19-.35h.01l-.2-.2v-85.37c-2.59-61.08-38.34-112.98-88.22-135.18v132.33L141.96,64.87l-21.8-21.8C47.81,90.38,0,172.1,0,265h30c0-69.05,29.95-131.2,77.52-174.23Z"/>
    </g>
  </g>
</svg>